<?xml version="1.0" encoding="UTF-8"?>
<!DOCTYPE svg PUBLIC "-//W3C//DTD SVG 1.1//EN"
    "http://www.w3.org/Graphics/SVG/1.1/DTD/svg11.dtd"><svg xmlns="http://www.w3.org/2000/svg" height="698.5534" stroke-opacity="1" viewBox="0 0 1050 699" font-size="1" width="1050.3301" xmlns:xlink="http://www.w3.org/1999/xlink" stroke="rgb(0,0,0)" version="1.1"><defs></defs><g stroke-linejoin="miter" stroke-opacity="1.0" fill-opacity="0.0" stroke="rgb(0,0,0)" stroke-width="3.426278780812843" fill="rgb(0,0,0)" stroke-linecap="butt" stroke-miterlimit="10.0"><path d="M 1040.3301,688.5534 l -0.0000,-678.5534 h -678.5534 l -0.0000,678.5534 Z"/></g><g stroke-linejoin="miter" stroke-opacity="1.0" fill-opacity="0.0" stroke="rgb(0,0,0)" stroke-width="3.426278780812843" fill="rgb(0,0,0)" stroke-linecap="butt" stroke-miterlimit="10.0"><path d="M 958.0078,92.3223 c -40.5463,-40.5463 -106.2848,-40.5463 -146.8311 -0.0000c -40.5463,40.5463 -40.5463,106.2848 -0.0000 146.8311c 40.5463,40.5463 106.2848,40.5463 146.8311 0.0000c 40.5463,-40.5463 40.5463,-106.2848 0.0000 -146.8311Z"/></g><g stroke-linejoin="miter" stroke-opacity="1.0" fill-opacity="0.0" stroke="rgb(0,0,0)" stroke-width="3.426278780812843" fill="rgb(0,0,0)" stroke-linecap="butt" stroke-miterlimit="10.0"><path d="M 958.0078,459.4000 c -40.5463,-40.5463 -106.2848,-40.5463 -146.8311 -0.0000c -40.5463,40.5463 -40.5463,106.2848 -0.0000 146.8311c 40.5463,40.5463 106.2848,40.5463 146.8311 0.0000c 40.5463,-40.5463 40.5463,-106.2848 0.0000 -146.8311Z"/></g><g stroke-linejoin="miter" stroke-opacity="1.0" fill-opacity="0.0" stroke="rgb(0,0,0)" stroke-width="3.426278780812843" fill="rgb(0,0,0)" stroke-linecap="butt" stroke-miterlimit="10.0"><path d="M 774.4689,275.8612 c -40.5463,-40.5463 -106.2848,-40.5463 -146.8311 -0.0000c -40.5463,40.5463 -40.5463,106.2848 -0.0000 146.8311c 40.5463,40.5463 106.2848,40.5463 146.8311 0.0000c 40.5463,-40.5463 40.5463,-106.2848 0.0000 -146.8311Z"/></g><g stroke-linejoin="miter" stroke-opacity="1.0" fill-opacity="0.0" stroke="rgb(0,0,0)" stroke-width="3.426278780812843" fill="rgb(0,0,0)" stroke-linecap="butt" stroke-miterlimit="10.0"><path d="M 590.9301,92.3223 c -40.5463,-40.5463 -106.2848,-40.5463 -146.8311 -0.0000c -40.5463,40.5463 -40.5463,106.2848 -0.0000 146.8311c 40.5463,40.5463 106.2848,40.5463 146.8311 0.0000c 40.5463,-40.5463 40.5463,-106.2848 0.0000 -146.8311Z"/></g><g stroke-linejoin="miter" stroke-opacity="1.0" fill-opacity="0.0" stroke="rgb(0,0,0)" stroke-width="3.426278780812843" fill="rgb(0,0,0)" stroke-linecap="butt" stroke-miterlimit="10.0"><path d="M 590.9301,459.4000 c -40.5463,-40.5463 -106.2848,-40.5463 -146.8311 -0.0000c -40.5463,40.5463 -40.5463,106.2848 -0.0000 146.8311c 40.5463,40.5463 106.2848,40.5463 146.8311 0.0000c 40.5463,-40.5463 40.5463,-106.2848 0.0000 -146.8311Z"/></g><g stroke-linejoin="miter" stroke-opacity="1.0" fill-opacity="0.0" stroke="rgb(0,0,0)" stroke-width="3.426278780812843" fill="rgb(0,0,0)" stroke-linecap="butt" stroke-miterlimit="10.0"><path d="M 336.7767,688.5534 l -0.0000,-326.7767 h -326.7767 l -0.0000,326.7767 Z"/></g><g stroke-linejoin="miter" stroke-opacity="1.0" fill-opacity="0.0" stroke="rgb(0,0,0)" stroke-width="3.426278780812843" fill="rgb(0,0,0)" stroke-linecap="butt" stroke-miterlimit="10.0"><path d="M 297.1320,401.4214 c -19.5262,-19.5262 -51.1845,-19.5262 -70.7107 -0.0000c -19.5262,19.5262 -19.5262,51.1845 -0.0000 70.7107c 19.5262,19.5262 51.1845,19.5262 70.7107 0.0000c 19.5262,-19.5262 19.5262,-51.1845 0.0000 -70.7107Z"/></g><g stroke-linejoin="miter" stroke-opacity="1.0" fill-opacity="0.0" stroke="rgb(0,0,0)" stroke-width="3.426278780812843" fill="rgb(0,0,0)" stroke-linecap="butt" stroke-miterlimit="10.0"><path d="M 297.1320,578.1981 c -19.5262,-19.5262 -51.1845,-19.5262 -70.7107 -0.0000c -19.5262,19.5262 -19.5262,51.1845 -0.0000 70.7107c 19.5262,19.5262 51.1845,19.5262 70.7107 0.0000c 19.5262,-19.5262 19.5262,-51.1845 0.0000 -70.7107Z"/></g><g stroke-linejoin="miter" stroke-opacity="1.0" fill-opacity="0.0" stroke="rgb(0,0,0)" stroke-width="3.426278780812843" fill="rgb(0,0,0)" stroke-linecap="butt" stroke-miterlimit="10.0"><path d="M 208.7437,489.8097 c -19.5262,-19.5262 -51.1845,-19.5262 -70.7107 -0.0000c -19.5262,19.5262 -19.5262,51.1845 -0.0000 70.7107c 19.5262,19.5262 51.1845,19.5262 70.7107 0.0000c 19.5262,-19.5262 19.5262,-51.1845 0.0000 -70.7107Z"/></g><g stroke-linejoin="miter" stroke-opacity="1.0" fill-opacity="0.0" stroke="rgb(0,0,0)" stroke-width="3.426278780812843" fill="rgb(0,0,0)" stroke-linecap="butt" stroke-miterlimit="10.0"><path d="M 120.3553,401.4214 c -19.5262,-19.5262 -51.1845,-19.5262 -70.7107 -0.0000c -19.5262,19.5262 -19.5262,51.1845 -0.0000 70.7107c 19.5262,19.5262 51.1845,19.5262 70.7107 0.0000c 19.5262,-19.5262 19.5262,-51.1845 0.0000 -70.7107Z"/></g><g stroke-linejoin="miter" stroke-opacity="1.0" fill-opacity="0.0" stroke="rgb(0,0,0)" stroke-width="3.426278780812843" fill="rgb(0,0,0)" stroke-linecap="butt" stroke-miterlimit="10.0"><path d="M 120.3553,578.1981 c -19.5262,-19.5262 -51.1845,-19.5262 -70.7107 -0.0000c -19.5262,19.5262 -19.5262,51.1845 -0.0000 70.7107c 19.5262,19.5262 51.1845,19.5262 70.7107 0.0000c 19.5262,-19.5262 19.5262,-51.1845 0.0000 -70.7107Z"/></g><g stroke-linejoin="miter" stroke-opacity="1.0" fill-opacity="0.0" stroke="rgb(0,0,0)" stroke-width="3.426278780812843" fill="rgb(0,0,0)" stroke-linecap="butt" stroke-miterlimit="10.0"><path d="M 336.7767,336.7767 l -0.0000,-326.7767 h -326.7767 l -0.0000,326.7767 Z"/></g><g stroke-linejoin="miter" stroke-opacity="1.0" fill-opacity="0.0" stroke="rgb(0,0,0)" stroke-width="3.426278780812843" fill="rgb(0,0,0)" stroke-linecap="butt" stroke-miterlimit="10.0"><path d="M 297.1320,49.6447 c -19.5262,-19.5262 -51.1845,-19.5262 -70.7107 -0.0000c -19.5262,19.5262 -19.5262,51.1845 -0.0000 70.7107c 19.5262,19.5262 51.1845,19.5262 70.7107 0.0000c 19.5262,-19.5262 19.5262,-51.1845 0.0000 -70.7107Z"/></g><g stroke-linejoin="miter" stroke-opacity="1.0" fill-opacity="0.0" stroke="rgb(0,0,0)" stroke-width="3.426278780812843" fill="rgb(0,0,0)" stroke-linecap="butt" stroke-miterlimit="10.0"><path d="M 297.1320,226.4214 c -19.5262,-19.5262 -51.1845,-19.5262 -70.7107 -0.0000c -19.5262,19.5262 -19.5262,51.1845 -0.0000 70.7107c 19.5262,19.5262 51.1845,19.5262 70.7107 0.0000c 19.5262,-19.5262 19.5262,-51.1845 0.0000 -70.7107Z"/></g><g stroke-linejoin="miter" stroke-opacity="1.0" fill-opacity="0.0" stroke="rgb(0,0,0)" stroke-width="3.426278780812843" fill="rgb(0,0,0)" stroke-linecap="butt" stroke-miterlimit="10.0"><path d="M 208.7437,138.0330 c -19.5262,-19.5262 -51.1845,-19.5262 -70.7107 -0.0000c -19.5262,19.5262 -19.5262,51.1845 -0.0000 70.7107c 19.5262,19.5262 51.1845,19.5262 70.7107 0.0000c 19.5262,-19.5262 19.5262,-51.1845 0.0000 -70.7107Z"/></g><g stroke-linejoin="miter" stroke-opacity="1.0" fill-opacity="0.0" stroke="rgb(0,0,0)" stroke-width="3.426278780812843" fill="rgb(0,0,0)" stroke-linecap="butt" stroke-miterlimit="10.0"><path d="M 120.3553,49.6447 c -19.5262,-19.5262 -51.1845,-19.5262 -70.7107 -0.0000c -19.5262,19.5262 -19.5262,51.1845 -0.0000 70.7107c 19.5262,19.5262 51.1845,19.5262 70.7107 0.0000c 19.5262,-19.5262 19.5262,-51.1845 0.0000 -70.7107Z"/></g><g stroke-linejoin="miter" stroke-opacity="1.0" fill-opacity="0.0" stroke="rgb(0,0,0)" stroke-width="3.426278780812843" fill="rgb(0,0,0)" stroke-linecap="butt" stroke-miterlimit="10.0"><path d="M 120.3553,226.4214 c -19.5262,-19.5262 -51.1845,-19.5262 -70.7107 -0.0000c -19.5262,19.5262 -19.5262,51.1845 -0.0000 70.7107c 19.5262,19.5262 51.1845,19.5262 70.7107 0.0000c 19.5262,-19.5262 19.5262,-51.1845 0.0000 -70.7107Z"/></g></svg>