<?xml version="1.0" encoding="UTF-8"?>
<!DOCTYPE svg PUBLIC "-//W3C//DTD SVG 1.1//EN"
    "http://www.w3.org/Graphics/SVG/1.1/DTD/svg11.dtd"><svg xmlns="http://www.w3.org/2000/svg" height="120.0000" stroke-opacity="1" viewBox="0 0 420 120" font-size="1" width="420.0000" xmlns:xlink="http://www.w3.org/1999/xlink" stroke="rgb(0,0,0)" version="1.1"><defs></defs><g stroke-linejoin="miter" stroke-opacity="1.0" fill-opacity="0.0" stroke="rgb(0,0,0)" stroke-width="0.897997772825746" fill="rgb(0,0,0)" stroke-linecap="butt" stroke-miterlimit="10.0"><path d="M 410.0000,110.0000 l -0.0000,-100.0000 h -100.0000 l -0.0000,100.0000 Z"/></g><g stroke-linejoin="miter" stroke-opacity="1.0" fill-opacity="0.0" stroke="rgb(0,0,0)" stroke-width="0.897997772825746" fill="rgb(0,0,0)" stroke-linecap="butt" stroke-miterlimit="10.0"><path d="M 310.0000,60.0000 c 0.0000,-27.6142 -22.3858,-50.0000 -50.0000 -50.0000c -27.6142,-0.0000 -50.0000,22.3858 -50.0000 50.0000c -0.0000,27.6142 22.3858,50.0000 50.0000 50.0000c 27.6142,0.0000 50.0000,-22.3858 50.0000 -50.0000Z"/></g><g stroke-linejoin="miter" stroke-opacity="1.0" fill-opacity="0.0" stroke="rgb(0,0,0)" stroke-width="0.897997772825746" fill="rgb(0,0,0)" stroke-linecap="butt" stroke-miterlimit="10.0"><path d="M 210.0000,110.0000 l -0.0000,-100.0000 h -100.0000 l -0.0000,100.0000 Z"/></g><g stroke-linejoin="miter" stroke-opacity="1.0" fill-opacity="0.0" stroke="rgb(0,0,0)" stroke-width="0.897997772825746" fill="rgb(0,0,0)" stroke-linecap="butt" stroke-miterlimit="10.0"><path d="M 110.0000,60.0000 c 0.0000,-27.6142 -22.3858,-50.0000 -50.0000 -50.0000c -27.6142,-0.0000 -50.0000,22.3858 -50.0000 50.0000c -0.0000,27.6142 22.3858,50.0000 50.0000 50.0000c 27.6142,0.0000 50.0000,-22.3858 50.0000 -50.0000Z"/></g></svg>